<svg id="Layer_1" data-name="Layer 1" xmlns="http://www.w3.org/2000/svg" viewBox="0 0 192 26.26"><defs><style>.cls-1{fill:#67a2d7;}</style></defs><path class="cls-1" d="M54.58,24,50.94,13.09a.48.48,0,0,0-.86-.11l-4.8,7.47a.88.88,0,0,0-.09.74l1.31,3.89a1.75,1.75,0,0,0,1.65,1.18h4.79A1.73,1.73,0,0,0,54.58,24Z"/><path class="cls-1" d="M24.43,20.8h-8a.48.48,0,0,0-.44.67,8.54,8.54,0,0,0,5.73,4.72,2.25,2.25,0,0,0,2.67-1.47L25.28,22A.9.9,0,0,0,24.43,20.8Z"/><path class="cls-1" d="M49.61,9.11,47.44,2.64A3.86,3.86,0,0,0,43.78,0H37a3.85,3.85,0,0,0-3.66,2.64l-1.71,5.1a.87.87,0,0,0,.82,1.15H40a.78.78,0,0,1,.77.6.75.75,0,0,1-.74.91H7.68a.48.48,0,0,0-.45.66,13.15,13.15,0,0,0,12.19,8.21h7a1,1,0,0,1,.92,1.27l-.28.85h0l-1,3.09a1.35,1.35,0,0,0,1.28,1.78h5.33a1.73,1.73,0,0,0,1.64-1.19L36,19.93a1,1,0,0,1,.91-.66h6.62a1.93,1.93,0,0,0,1.64-.92l4.21-6.8A2.91,2.91,0,0,0,49.61,9.11Z"/><path class="cls-1" d="M28.75,8.89A1.26,1.26,0,0,0,29.94,8l1.84-5.49A1.93,1.93,0,0,0,30,0H.48A.48.48,0,0,0,0,.66,13.17,13.17,0,0,0,12.25,8.89Z"/><path class="cls-1" d="M67,6.79a1.48,1.48,0,0,1,1.54-1.1h2.25a1.47,1.47,0,0,1,1.53,1.1l4,12.23a1.19,1.19,0,0,1-.06,1.13,1.21,1.21,0,0,1-1,.42H73.56A1.49,1.49,0,0,1,72,19.43L71.71,18h-4.2l-.31,1.45a1.4,1.4,0,0,1-1.49,1.14H64a1.21,1.21,0,0,1-1-.42A1.16,1.16,0,0,1,62.94,19Zm3.75,7.74-.45-2.07c-.07-.25-.14-.54-.21-.86s-.14-.63-.21-.9l-.21-1h0c-.07.34-.13.67-.2,1s-.14.57-.2.9-.13.61-.2.86l-.49,2.07Z"/><path class="cls-1" d="M78.21,19.37a1.7,1.7,0,0,1-.57-.73,1.3,1.3,0,0,1,.3-1.13l.79-1.14a1.24,1.24,0,0,1,.82-.6,1.74,1.74,0,0,1,1,.27,2.29,2.29,0,0,1,.43.2,4,4,0,0,0,.55.29,3.86,3.86,0,0,0,.68.25,3,3,0,0,0,.81.11,1.42,1.42,0,0,0,.87-.2.6.6,0,0,0,.22-.47.77.77,0,0,0-.46-.66A8.21,8.21,0,0,0,82.52,15c-.47-.18-1-.38-1.51-.61a6.34,6.34,0,0,1-1.51-.88,4.54,4.54,0,0,1-1.17-1.33,3.92,3.92,0,0,1-.47-2,4.39,4.39,0,0,1,1.57-3.46,5.64,5.64,0,0,1,1.76-1,6.81,6.81,0,0,1,2.2-.34,8.79,8.79,0,0,1,1.26.09,11.77,11.77,0,0,1,1.16.25,9.25,9.25,0,0,1,1,.35,6.14,6.14,0,0,1,.74.39,1.46,1.46,0,0,1,.62.86,1.63,1.63,0,0,1-.19,1l-.6,1.18a1.51,1.51,0,0,1-.4.54,1,1,0,0,1-.45.19,1,1,0,0,1-.48,0,2.85,2.85,0,0,1-.51-.2l-1-.46a2.85,2.85,0,0,0-1.15-.21,1.41,1.41,0,0,0-.86.2.58.58,0,0,0-.25.49.79.79,0,0,0,.46.7,7.28,7.28,0,0,0,1.17.53c.47.17,1,.36,1.52.58a6.08,6.08,0,0,1,1.52.84A4.19,4.19,0,0,1,88.05,14a3.86,3.86,0,0,1,.47,2,4.79,4.79,0,0,1-.36,1.84,4.48,4.48,0,0,1-1.06,1.53,5,5,0,0,1-1.71,1.05,6.22,6.22,0,0,1-2.33.4,8.12,8.12,0,0,1-1.5-.14,10.71,10.71,0,0,1-1.38-.34A8.34,8.34,0,0,1,79,19.88,6,6,0,0,1,78.21,19.37Z"/><path class="cls-1" d="M93.76,6.79a1.46,1.46,0,0,1,1.53-1.1h2.25a1.46,1.46,0,0,1,1.53,1.1l4,12.23a1.19,1.19,0,0,1-.06,1.13,1.21,1.21,0,0,1-1,.42h-1.67a1.48,1.48,0,0,1-1.53-1.14L98.49,18h-4.2L94,19.43a1.4,1.4,0,0,1-1.49,1.14H90.82a1.21,1.21,0,0,1-1-.42A1.16,1.16,0,0,1,89.72,19Zm3.74,7.74-.45-2.07c-.07-.25-.14-.54-.21-.86s-.14-.63-.21-.9-.14-.66-.2-1h-.05c-.07.34-.13.67-.2,1s-.14.57-.2.9-.13.61-.2.86l-.49,2.07Z"/><path class="cls-1" d="M105,7a1.2,1.2,0,0,1,1.37-1.34h5.15a4.94,4.94,0,0,1,2,.4,4.62,4.62,0,0,1,1.56,1.11,4.85,4.85,0,0,1,1,1.69,6.33,6.33,0,0,1,.35,2.12,6.4,6.4,0,0,1-.35,2.14,5.13,5.13,0,0,1-1,1.71A4.54,4.54,0,0,1,113.56,16a5.11,5.11,0,0,1-2,.4h-2.15v2.83A1.19,1.19,0,0,1,108,20.57h-1.66A1.2,1.2,0,0,1,105,19.22Zm5.59,5.63a1.26,1.26,0,0,0,1.12-.48,2.06,2.06,0,0,0,.33-1.17,1.94,1.94,0,0,0-.32-1.14,1.2,1.2,0,0,0-1-.46h-1.3v3.25Z"/><path class="cls-1" d="M118.36,7a1.2,1.2,0,0,1,1.37-1.34h4a17.26,17.26,0,0,1,1.75.07,5.74,5.74,0,0,1,1.21.24,3.83,3.83,0,0,1,1.16.62,4.38,4.38,0,0,1,.93,1,4.49,4.49,0,0,1,.61,1.31,5.19,5.19,0,0,1,.22,1.55,5.94,5.94,0,0,1-.12,1.16,5.81,5.81,0,0,1-.37,1.16,4.26,4.26,0,0,1-.65,1,3.62,3.62,0,0,1-.93.81v0a3.17,3.17,0,0,1,.21.27c.07.08.14.18.22.29s.15.24.23.39l1.87,3.31c.29.53.33.93.12,1.22a1.23,1.23,0,0,1-1.05.42h-1.93a1.94,1.94,0,0,1-.89-.21,1.68,1.68,0,0,1-.7-.74L123.76,16h-1v3.24a1.19,1.19,0,0,1-1.35,1.35h-1.65a1.2,1.2,0,0,1-1.37-1.35Zm5.3,5.22a1.67,1.67,0,0,0,1.17-.36,1.6,1.6,0,0,0,.38-1.21,1.8,1.8,0,0,0-.1-.6.88.88,0,0,0-.56-.5,1.79,1.79,0,0,0-.53-.13,3.92,3.92,0,0,0-.63,0h-.66v2.84Z"/><path class="cls-1" d="M131.38,13a7.9,7.9,0,0,1,.56-3,6.94,6.94,0,0,1,1.59-2.41A7.41,7.41,0,0,1,136,6a8.42,8.42,0,0,1,3.21-.59,8.55,8.55,0,0,1,3.22.59,7.18,7.18,0,0,1,4.08,4,7.72,7.72,0,0,1,.57,3,8.11,8.11,0,0,1-.57,3.05,7.6,7.6,0,0,1-1.59,2.47,7.2,7.2,0,0,1-2.49,1.66,8.36,8.36,0,0,1-3.22.6,8.24,8.24,0,0,1-3.21-.6,7.29,7.29,0,0,1-4.07-4.13A8.31,8.31,0,0,1,131.38,13Zm4.51,0a4.43,4.43,0,0,0,.25,1.51,3.84,3.84,0,0,0,.68,1.21,3.13,3.13,0,0,0,2.4,1.08,3.18,3.18,0,0,0,2.43-1.08,3.84,3.84,0,0,0,.68-1.21,4.69,4.69,0,0,0,.25-1.51,4.27,4.27,0,0,0-.25-1.44,3.54,3.54,0,0,0-.68-1.15,3.26,3.26,0,0,0-1.06-.76,3.39,3.39,0,0,0-1.37-.28,3.33,3.33,0,0,0-1.35.28,3.22,3.22,0,0,0-1.05.76,3.54,3.54,0,0,0-.68,1.15A4,4,0,0,0,135.89,13Z"/><path class="cls-1" d="M151.68,13.31l-3.62-6a1.13,1.13,0,0,1-.15-1.16A1.11,1.11,0,0,1,149,5.69h2a1.73,1.73,0,0,1,1.61,1l.79,1.64.35.72c.11.24.21.45.29.64s.18.43.25.62h0c.07-.18.15-.38.25-.6s.18-.4.29-.64.23-.48.37-.74L156,6.66a1.72,1.72,0,0,1,1.59-1h2a1.11,1.11,0,0,1,1.06.45,1.11,1.11,0,0,1-.15,1.16l-3.64,6,3.45,5.62a1.17,1.17,0,0,1,.18,1.18,1.14,1.14,0,0,1-1.09.46h-1.86a1.71,1.71,0,0,1-1.59-1l-.73-1.47c-.14-.25-.26-.49-.37-.72s-.21-.43-.29-.61a5.09,5.09,0,0,1-.25-.6h0c-.07.18-.15.38-.25.58l-.29.62c-.11.24-.23.47-.37.71l-.75,1.49a1.72,1.72,0,0,1-1.61,1h-1.8c-.57,0-.94-.15-1.11-.46a1.18,1.18,0,0,1,.16-1.18Z"/><path class="cls-1" d="M162.63,7A1.2,1.2,0,0,1,164,5.69h1.65A1.19,1.19,0,0,1,167,7V19.22a1.19,1.19,0,0,1-1.35,1.35H164a1.2,1.2,0,0,1-1.37-1.35Z"/><path class="cls-1" d="M169.79,7a1.2,1.2,0,0,1,1.37-1.34h6.93A1.19,1.19,0,0,1,179.44,7v1a1.19,1.19,0,0,1-1.35,1.34h-3.93v1.8H177a1.2,1.2,0,0,1,1.37,1.35v1A1.2,1.2,0,0,1,177,14.94h-2.81v1.9h4.18a1.2,1.2,0,0,1,1.37,1.35v1a1.2,1.2,0,0,1-1.37,1.35h-7.18a1.2,1.2,0,0,1-1.37-1.35Z"/><path class="cls-1" d="M181.69,19.37a1.7,1.7,0,0,1-.57-.73,1.3,1.3,0,0,1,.3-1.13l.79-1.14a1.24,1.24,0,0,1,.82-.6,1.74,1.74,0,0,1,1,.27,2.29,2.29,0,0,1,.43.2,4,4,0,0,0,.55.29,3.86,3.86,0,0,0,.68.25,3,3,0,0,0,.81.11,1.42,1.42,0,0,0,.87-.2.6.6,0,0,0,.22-.47.77.77,0,0,0-.46-.66A8.21,8.21,0,0,0,186,15c-.47-.18-1-.38-1.51-.61a6.55,6.55,0,0,1-1.51-.88,4.54,4.54,0,0,1-1.17-1.33,3.92,3.92,0,0,1-.47-2,4.43,4.43,0,0,1,.42-1.95,4.37,4.37,0,0,1,1.15-1.51,5.64,5.64,0,0,1,1.76-1,6.81,6.81,0,0,1,2.2-.34,8.79,8.79,0,0,1,1.26.09,11.77,11.77,0,0,1,1.16.25,9.25,9.25,0,0,1,1,.35,6.14,6.14,0,0,1,.74.39,1.41,1.41,0,0,1,.62.86,1.63,1.63,0,0,1-.19,1l-.6,1.18a1.51,1.51,0,0,1-.4.54,1,1,0,0,1-.45.19,1,1,0,0,1-.48,0A2.85,2.85,0,0,1,189,10L188,9.58a2.83,2.83,0,0,0-1.14-.21,1.42,1.42,0,0,0-.87.2.58.58,0,0,0-.25.49.79.79,0,0,0,.46.7,7.28,7.28,0,0,0,1.17.53c.47.17,1,.36,1.52.58a6.08,6.08,0,0,1,1.52.84,4.19,4.19,0,0,1,1.17,1.3,3.86,3.86,0,0,1,.47,2,4.79,4.79,0,0,1-.36,1.84,4.48,4.48,0,0,1-1.06,1.53,5,5,0,0,1-1.71,1.05,6.22,6.22,0,0,1-2.33.4,8.29,8.29,0,0,1-1.5-.14,10.71,10.71,0,0,1-1.38-.34,8.34,8.34,0,0,1-1.15-.46A6,6,0,0,1,181.69,19.37Z"/></svg>