<svg width="1440" height="900" viewBox="0 0 1440 900" fill="none" xmlns="http://www.w3.org/2000/svg">
<path d="M-277 960.499C-455.591 1047.07 360.048 1029.31 449.5 1075L809.5 1005.5L1623 741.626C1562.01 565.653 1655.08 109.469 1584 88.4995C1495.15 62.2879 1462.5 674.5 1307.5 766.499C1141.91 864.787 550.593 1051.82 400.999 919.002C161.54 706.403 -53.762 852.283 -277 960.499Z" fill="#EFF5FA" stroke="#EFF5FA"/>
<path d="M-32.7543 608.668C-312.675 583.004 -59.6017 864.363 15.3744 990.781L50.352 1220.56L1470.56 1315.04C1525.52 1044.18 1617.72 482.233 1546.91 401.342C1458.4 300.228 1441.39 661.643 1314.48 809.886C1187.58 958.13 1105 706 649 813.499C200.61 919.205 317.147 640.749 -32.7543 608.668Z" fill="#DAEEFD" stroke="#DAEEFD"/>
<path d="M-34.6258 704.344C-242.313 632.696 -101.919 755.875 -55.9954 820.844L-48.4384 916.562L1008.19 1266.39C1071.36 1174.8 1119.7 1017.76 1073.2 971.141C1015.08 912.872 1002.93 914.604 895.791 943.347C788.657 972.09 776.841 881.994 465.994 891.521C155.147 901.047 224.983 793.903 -34.6258 704.344Z" fill="#EFF5FA" stroke="#EFF5FA"/>
</svg>
