<?xml version="1.0" encoding="UTF-8" standalone="no"?>
<!-- Created with Inkscape (http://www.inkscape.org/) -->

<svg
   xmlns:dc="http://purl.org/dc/elements/1.1/"
   xmlns:cc="http://creativecommons.org/ns#"
   xmlns:rdf="http://www.w3.org/1999/02/22-rdf-syntax-ns#"
   xmlns:svg="http://www.w3.org/2000/svg"
   xmlns="http://www.w3.org/2000/svg"
   xmlns:sodipodi="http://sodipodi.sourceforge.net/DTD/sodipodi-0.dtd"
   xmlns:inkscape="http://www.inkscape.org/namespaces/inkscape"
   width="152.07925"
   height="22.862341"
   viewBox="0 0 40.237636 6.0489943"
   version="1.1"
   id="svg15119"
   inkscape:version="0.92.0 r15299"
   sodipodi:docname="finish line.svg">
  <defs
     id="defs15113">
    <clipPath
       id="clipPath14714"
       clipPathUnits="userSpaceOnUse">
      <path
         inkscape:connector-curvature="0"
         id="path14712"
         d="m 49.5,735.5 h 113 v 15.94 h -113 z" />
    </clipPath>
  </defs>
  <sodipodi:namedview
     id="base"
     pagecolor="#ffffff"
     bordercolor="#666666"
     borderopacity="1.0"
     inkscape:pageopacity="0.0"
     inkscape:pageshadow="2"
     inkscape:zoom="5.95354"
     inkscape:cx="75.333388"
     inkscape:cy="10.649649"
     inkscape:document-units="mm"
     inkscape:current-layer="layer1"
     showgrid="false"
     fit-margin-top="0"
     fit-margin-left="0"
     fit-margin-right="0"
     fit-margin-bottom="0"
     units="px"
     inkscape:window-width="1280"
     inkscape:window-height="744"
     inkscape:window-x="-4"
     inkscape:window-y="-4"
     inkscape:window-maximized="1" />
  <metadata
     id="metadata15116">
    <rdf:RDF>
      <cc:Work
         rdf:about="">
        <dc:format>image/svg+xml</dc:format>
        <dc:type
           rdf:resource="http://purl.org/dc/dcmitype/StillImage" />
        <dc:title></dc:title>
      </cc:Work>
    </rdf:RDF>
  </metadata>
  <g
     inkscape:label="Layer 1"
     inkscape:groupmode="layer"
     id="layer1"
     transform="translate(-44.323994,-134.26278)">
    <g
       id="g15246"
       transform="translate(0.13229187,-0.13228776)">
      <path
         d="m 72.100072,140.28495 0.984706,-5.6025 h 1.517991 l -0.984759,5.6025 z"
         style="fill:#428cd2;fill-opacity:1;fill-rule:nonzero;stroke:none;stroke-width:0.02670521"
         id="path14698"
         inkscape:connector-curvature="0" />
      <path
         d="m 48.744772,140.28495 0.984706,-5.6025 h 1.543823 l -1.010591,5.6025 z"
         style="fill:#333333;fill-opacity:1;fill-rule:nonzero;stroke:none;stroke-width:0.02670521"
         id="path14702"
         inkscape:connector-curvature="0" />
      <path
         d="m 55.722073,140.28495 0.984706,-5.6025 h 1.544542 l -0.984706,5.6025 z"
         style="fill:#333333;fill-opacity:1;fill-rule:nonzero;stroke:none;stroke-width:0.02670521"
         id="path14706"
         inkscape:connector-curvature="0" />
      <path
         d="m 79.583364,134.52736 v 0 H 78.0654 l -0.479357,2.67797 -1.1185,-2.2495 c -0.133155,-0.29457 -0.399464,-0.42847 -0.719036,-0.42847 h -0.612512 l -1.011976,5.75763 h 1.544595 l 0.479357,-2.73153 1.1185,2.30306 c 0.133155,0.26779 0.426096,0.42847 0.719036,0.42847 h 0.585881 z"
         style="fill:#428cd2;fill-opacity:1;fill-rule:nonzero;stroke:none;stroke-width:0.02670521"
         id="path14718"
         inkscape:connector-curvature="0" />
      <g
         id="g14720"
         transform="matrix(0.02663095,0,0,0.02677968,56.228026,134.52736)">
        <path
           d="M 0,0 V 0 H -57 L -75,100 -116,16 C -122,5 -132,0 -144,0 h -22 l -39,215 h 58 l 18,-102 42,86 c 5,10 16,16 27,16 h 22 z"
           style="fill:#333333;fill-opacity:1;fill-rule:nonzero;stroke:none"
           id="path14722"
           inkscape:connector-curvature="0" />
        <g
           id="g14724"
           transform="translate(-271.99991,53)">
          <path
             d="m 0,0 v 0 l 10,-53 h -97 c -29,0 -54,20 -59,49 l -29,167 h 57 l 15,-87 h 71 l 9,-54 h -70 l 4,-22 z"
             style="fill:#333333;fill-opacity:1;fill-rule:nonzero;stroke:none"
             id="path14726"
             inkscape:connector-curvature="0" />
          <g
             id="g14728"
             transform="translate(624.99988,-53)">
            <path
               d="M 0,0 V 0 L -16,86 H -64 L -48,0 h -58 l -38,215 h 58 l 13,-76 h 48 l -14,76 H 19 L 57,0 Z"
               style="fill:#333333;fill-opacity:1;fill-rule:nonzero;stroke:none"
               id="path14730"
               inkscape:connector-curvature="0" />
            <g
               id="g14732"
               transform="translate(680.99982,53)">
              <path
                 d="m 0,0 v 0 l 10,-53 h -148 l -38,216 h 147 l 10,-54 h -90 l 6,-33 h 70 l 10,-54 h -71 l 4,-22 z"
                 style="fill:#428cd2;fill-opacity:1;fill-rule:nonzero;stroke:none"
                 id="path14734"
                 inkscape:connector-curvature="0" />
              <g
                 id="g14736"
                 transform="translate(-518.99982,109)">
                <path
                   d="M 0,0 V 0 L 29,-162 H -28 L -60,18 c -4,19 11,36 29,36 H 62 L 71,0 Z"
                   style="fill:#428cd2;fill-opacity:1;fill-rule:nonzero;stroke:none"
                   id="path14738"
                   inkscape:connector-curvature="0" />
                <g
                   id="g14740"
                   transform="translate(-364,-109)">
                  <path
                     d="m 0,0 v 0 h 68 l 9,-53 h -99 c -32,0 -53,32 -39,60 l 48,98 c 1,2 0,4 -2,4 h -69 l -9,54 H 7 c 32,0 53,-34 39,-62 L -2,3 C -3,2 -2,0 0,0"
                     style="fill:#333333;fill-opacity:1;fill-rule:nonzero;stroke:none"
                     id="path14742"
                     inkscape:connector-curvature="0" />
                  <g
                     id="g14744"
                     transform="translate(887,163)">
                    <path
                       d="m 0,0 v 0 -17 h 4 l 4,13 4,-13 h 4 V 0 H 13 V -14 L 9,0 H 6 L 2,-14 V 0 Z m -10,0 v 0 -14 h -6 v -3 h 14 v 3 H -8 V 0 Z"
                       style="fill:#428cd2;fill-opacity:1;fill-rule:nonzero;stroke:none"
                       id="path14746"
                       inkscape:connector-curvature="0" />
                  </g>
                </g>
              </g>
            </g>
          </g>
        </g>
      </g>
    </g>
  </g>
</svg>
