<svg width="1442" height="474" viewBox="0 0 1442 474" fill="none" xmlns="http://www.w3.org/2000/svg">
<path fill-rule="evenodd" clip-rule="evenodd" d="M1441 27.7357C1433.19 16.1874 1424.28 8.27645 1414.13 4.86355C1357.18 -14.3048 1344.48 38.0152 1327.7 107.147C1314.06 163.317 1297.73 230.585 1252.78 279.624C1212.33 323.752 1163.07 317.222 1096.38 308.383C997.743 295.309 860.997 277.184 658.291 410.403C618.576 436.504 583.362 457.02 551.584 473H1441V27.7357Z" fill="#DAEEFD"/>
<path d="M1441 27.7357H1441.5V27.5825L1441.41 27.4556L1441 27.7357ZM1414.13 4.86355L1414.29 4.38967L1414.29 4.38967L1414.13 4.86355ZM1327.7 107.147L1328.18 107.265L1328.18 107.265L1327.7 107.147ZM1252.78 279.624L1252.42 279.286L1252.42 279.286L1252.78 279.624ZM1096.38 308.383L1096.44 307.887L1096.44 307.887L1096.38 308.383ZM658.291 410.403L658.017 409.985L658.017 409.985L658.291 410.403ZM551.584 473L551.36 472.553L551.584 473.5V473ZM1441 473V473.5H1441.5V473H1441ZM1441.41 27.4556C1433.57 15.8547 1424.57 7.84981 1414.29 4.38967L1413.98 5.33743C1423.98 8.7031 1432.81 16.5201 1440.59 28.0159L1441.41 27.4556ZM1414.29 4.38967C1399.99 -0.425477 1388.4 -0.77223 1378.8 2.56473C1369.2 5.9022 1361.67 12.8986 1355.43 22.6228C1349.2 32.3417 1344.24 44.8139 1339.8 59.1565C1335.35 73.5014 1331.41 89.7498 1327.21 107.029L1328.18 107.265C1332.38 89.9778 1336.32 73.7618 1340.75 59.4526C1345.19 45.1409 1350.11 32.769 1356.27 23.1626C1362.43 13.5613 1369.8 6.75106 1379.13 3.50928C1388.45 0.266986 1399.81 0.568376 1413.98 5.33743L1414.29 4.38967ZM1327.21 107.029C1313.57 163.222 1297.26 230.358 1252.42 279.286L1253.15 279.961C1298.2 230.813 1314.56 163.412 1328.18 107.265L1327.21 107.029ZM1252.42 279.286C1212.17 323.193 1163.19 316.734 1096.44 307.887L1096.31 308.878C1162.95 317.71 1212.5 324.312 1253.15 279.961L1252.42 279.286ZM1096.44 307.887C1047.12 301.35 988.218 293.54 916.289 304.038C844.356 314.537 759.424 343.34 658.017 409.985L658.566 410.821C759.864 344.247 844.659 315.503 916.433 305.028C988.212 294.552 1047 302.342 1096.31 308.878L1096.44 307.887ZM658.017 409.985C618.314 436.078 583.117 456.584 551.36 472.553L551.809 473.446C583.608 457.456 618.838 436.93 658.566 410.821L658.017 409.985ZM551.584 473.5H1441V472.5H551.584V473.5ZM1441.5 473V27.7357H1440.5V473H1441.5Z" fill="#DAEEFD"/>
<path fill-rule="evenodd" clip-rule="evenodd" d="M1441 162.035C1429.27 178.827 1418.71 201.973 1407.04 227.584C1383.06 280.176 1354.34 343.16 1300.95 382.845C1252.9 418.557 1205.75 402.856 1141.92 381.601C1047.52 350.167 916.647 306.587 692.461 399.202C474.044 489.434 393.43 446.215 294.755 393.314C224.618 355.713 145.357 313.22 1 310.278V473L1441 473V162.035Z" fill="#EFF5FA"/>
<path d="M1441 162.035H1441.5V160.447L1440.59 161.749L1441 162.035ZM1407.04 227.584L1407.49 227.792L1407.49 227.792L1407.04 227.584ZM1300.95 382.845L1301.25 383.246L1301.25 383.246L1300.95 382.845ZM1141.92 381.601L1141.77 382.076L1141.77 382.076L1141.92 381.601ZM692.461 399.202L692.27 398.74L692.27 398.74L692.461 399.202ZM294.755 393.314L294.518 393.755L294.518 393.755L294.755 393.314ZM1 310.278L1.01019 309.778L0.5 309.768V310.278H1ZM1 473H0.5V473.5L1 473.5L1 473ZM1441 473L1441 473.5L1441.5 473.5V473H1441ZM1440.59 161.749C1428.83 178.586 1418.25 201.781 1406.58 227.377L1407.49 227.792C1419.18 202.166 1429.71 179.068 1441.41 162.322L1440.59 161.749ZM1406.58 227.377C1382.59 279.99 1353.92 342.848 1300.65 382.444L1301.25 383.246C1354.76 343.472 1383.52 280.362 1407.49 227.792L1406.58 227.377ZM1300.65 382.444C1252.85 417.976 1205.97 402.399 1142.08 381.127L1141.77 382.076C1205.54 403.312 1252.96 419.137 1301.25 383.246L1300.65 382.444ZM1142.08 381.127C1094.88 365.409 1038.5 346.635 965.885 343.384C893.262 340.133 804.424 352.408 692.27 398.74L692.652 399.664C804.685 353.382 893.378 341.139 965.84 344.383C1038.31 347.627 1094.57 366.359 1141.77 382.076L1142.08 381.127ZM692.27 398.74C583.104 443.838 508.433 455.562 448.756 449.436C389.077 443.309 344.336 419.328 294.991 392.873L294.518 393.755C343.849 420.202 388.753 444.281 448.654 450.43C508.556 456.58 583.401 444.797 692.652 399.664L692.27 398.74ZM294.991 392.873C224.832 355.26 145.486 312.722 1.01019 309.778L0.989813 310.778C145.227 313.717 224.404 356.166 294.518 393.755L294.991 392.873ZM0.5 310.278V473H1.5V310.278H0.5ZM1 473.5L1441 473.5L1441 472.5L1 472.5L1 473.5ZM1441.5 473V162.035H1440.5V473H1441.5Z" fill="#EFF5FA"/>
</svg>
