<svg width="1061" height="388" viewBox="0 0 1061 388" fill="none" xmlns="http://www.w3.org/2000/svg">
<path fill-rule="evenodd" clip-rule="evenodd" d="M810.065 387.002C810.064 387.003 810.064 387.004 810.063 387.005H292.922L292.919 387H1.19457C1.062 384.18 0.995117 381.347 0.995117 378.5C0.995117 257.274 122.326 159 271.995 159C277.261 159 282.491 159.122 287.683 159.362C332.553 65.4808 433.791 0.00485229 551.493 0.00485229C649.855 0.00485229 736.72 45.7323 788.797 115.551C822.204 103.624 859.147 97.0021 897.999 97.0021C1047.67 97.0021 1169 195.276 1169 316.502C1169 341.163 1163.98 364.875 1154.72 387.002H810.065Z" fill="#C7E3FF"/>
</svg>
