<svg id="Layer_1" data-name="Layer 1" xmlns="http://www.w3.org/2000/svg" viewBox="0 0 192 92.21"><defs><style>.cls-1{fill:#67a2d7;}</style></defs><path class="cls-1" d="M191.68,84.18,178.89,46a1.7,1.7,0,0,0-3-.38L159,71.81a3.07,3.07,0,0,0-.33,2.62l4.6,13.63a6.1,6.1,0,0,0,5.78,4.15H185.9A6.1,6.1,0,0,0,191.68,84.18Z"/><path class="cls-1" d="M85.78,73H57.61A1.7,1.7,0,0,0,56,75.4,30,30,0,0,0,76.18,92a7.88,7.88,0,0,0,9.37-5.15l3.22-9.62A3.15,3.15,0,0,0,85.78,73Z"/><path class="cls-1" d="M174.21,32,166.59,9.26A13.56,13.56,0,0,0,153.73,0h-24a13.56,13.56,0,0,0-12.86,9.26l-6,17.94a3,3,0,0,0,2.89,4h26.67a2.71,2.71,0,0,1,2.7,2.13,2.65,2.65,0,0,1-2.6,3.18H27a1.7,1.7,0,0,0-1.57,2.33A46.17,46.17,0,0,0,68.18,67.67H92.62a3.39,3.39,0,0,1,3.21,4.47l-1,3h0L91.21,86a4.75,4.75,0,0,0,4.5,6.25H114.4a6.1,6.1,0,0,0,5.78-4.16l6-18.06a3.38,3.38,0,0,1,3.21-2.32h23.25a6.79,6.79,0,0,0,5.77-3.22l14.75-23.87A10.17,10.17,0,0,0,174.21,32Z"/><path class="cls-1" d="M101,31.21a4.4,4.4,0,0,0,4.18-3l6.45-19.27A6.78,6.78,0,0,0,105.16,0H1.7A1.69,1.69,0,0,0,.13,2.33,46.26,46.26,0,0,0,43,31.21Z"/></svg>